<svg xmlns="http://www.w3.org/2000/svg" xmlns:xlink="http://www.w3.org/1999/xlink" width="245" height="120" viewBox="0 0 245 120">
  <defs>
    <clipPath id="clip-history-blank">
      <rect width="245" height="120"/>
    </clipPath>
  </defs>
  <g id="history-blank" clip-path="url(#clip-history-blank)">
    <g id="Group_178" data-name="Group 178" transform="translate(-4404.285 -3337.039)">
      <g id="Group_176" data-name="Group 176">
        <g id="Group_145" data-name="Group 145" transform="translate(20)" opacity="0.8">
          <g id="Group_144" data-name="Group 144">
            <path id="Path_61" data-name="Path 61" d="M4442.445,3402.815a4.735,4.735,0,0,1-2.255-.4.407.407,0,1,0-.387.717c.084.046.169.087.254.125a3.564,3.564,0,0,0-1.9,2,2,2,0,0,1,0-4c.078.192.149.326.152.332a.408.408,0,1,0,.726-.371,4.374,4.374,0,0,1-.436-2.1.448.448,0,0,0-.881-.152c-.029.128.181,2.329-1.416,3.35a4.5,4.5,0,0,1-2.44.507.449.449,0,0,0,0,.876,4.472,4.472,0,0,1,2.461.52c1.545,1.007,1.374,3.149,1.384,3.245a.449.449,0,0,0,.877.125c.054-.166-.172-2.291,1.353-3.336a4.242,4.242,0,0,1,2.467-.547A.449.449,0,0,0,4442.445,3402.815Z" fill="#888"/>
          </g>
        </g>
        <g id="Group_147" data-name="Group 147" transform="translate(20)" opacity="0.8">
          <g id="Group_146" data-name="Group 146">
            <path id="Path_62" data-name="Path 62" d="M4466.7,3411.141a7.345,7.345,0,0,1-3.492-.622.631.631,0,0,0-.6,1.111c.131.071.262.135.394.193a5.515,5.515,0,0,0-2.935,3.095,3.1,3.1,0,0,1,0-6.193c.12.3.231.506.235.514a.631.631,0,1,0,1.124-.574,6.755,6.755,0,0,1-.675-3.258.687.687,0,0,0-.564-.762.7.7,0,0,0-.8.528c-.045.2.282,3.6-2.191,5.186a6.969,6.969,0,0,1-3.778.785.7.7,0,0,0,0,1.356,6.925,6.925,0,0,1,3.81.806c2.391,1.558,2.127,4.875,2.143,5.023a.7.7,0,0,0,1.358.194c.083-.258-.267-3.548,2.1-5.165a6.539,6.539,0,0,1,3.819-.846A.7.7,0,0,0,4466.7,3411.141Z" fill="#888"/>
          </g>
        </g>
        <g id="Group_149" data-name="Group 149" transform="translate(20)" opacity="0.15">
          <g id="Group_148" data-name="Group 148">
            <path id="Path_63" data-name="Path 63" d="M4445.229,3418.756a7.834,7.834,0,0,1-3.721-.663.672.672,0,0,0-.638,1.184c.139.075.279.143.419.2a5.882,5.882,0,0,0-3.127,3.3,3.3,3.3,0,0,1,0-6.6c.129.317.246.538.251.547a.672.672,0,1,0,1.2-.611,7.222,7.222,0,0,1-.719-3.471.731.731,0,0,0-.6-.812.741.741,0,0,0-.853.562c-.048.21.3,3.841-2.334,5.525a7.415,7.415,0,0,1-4.025.836.741.741,0,0,0,0,1.445,7.387,7.387,0,0,1,4.059.859c2.548,1.66,2.266,5.193,2.283,5.352a.74.74,0,0,0,1.446.206c.089-.275-.283-3.78,2.232-5.5a6.973,6.973,0,0,1,4.069-.9A.741.741,0,0,0,4445.229,3418.756Z" fill="#888"/>
          </g>
        </g>
        <g id="Group_151" data-name="Group 151" transform="translate(-20)" opacity="0.2">
          <g id="Group_150" data-name="Group 150">
            <path id="Path_64" data-name="Path 64" d="M4648.7,3427.325a7.826,7.826,0,0,1-3.721-.662.672.672,0,1,0-.638,1.183c.139.075.279.144.419.206a5.881,5.881,0,0,0-3.127,3.3,3.3,3.3,0,0,1,0-6.6c.129.318.246.539.251.548a.672.672,0,1,0,1.2-.612,7.212,7.212,0,0,1-.719-3.471.731.731,0,0,0-.6-.812.741.741,0,0,0-.853.563c-.048.21.3,3.84-2.335,5.524a7.423,7.423,0,0,1-4.025.837.742.742,0,0,0,0,1.445,7.372,7.372,0,0,1,4.06.858c2.547,1.66,2.266,5.194,2.283,5.352a.74.74,0,0,0,1.446.207c.089-.276-.283-3.78,2.232-5.5a6.975,6.975,0,0,1,4.069-.9A.741.741,0,0,0,4648.7,3427.325Z" fill="#888"/>
          </g>
        </g>
        <g id="Group_153" data-name="Group 153" transform="translate(-20)" opacity="0.8">
          <g id="Group_152" data-name="Group 152">
            <path id="Path_65" data-name="Path 65" d="M4627.494,3443.348c-.512-.057-4.157.455-5.749-2.889a7.936,7.936,0,0,1-.669-3.554.345.345,0,0,0-.682.062v.726c-.126,2.495-1.262,4.619-3.646,5.366a9.134,9.134,0,0,1-2.795.294.346.346,0,0,0,0,.676,6.718,6.718,0,0,1,4.482,1.2.28.28,0,0,0,.358-.43,3.071,3.071,0,1,1,1.942-5.546,4.44,4.44,0,0,1,0,8.865,6.6,6.6,0,0,0-1-2.3.28.28,0,0,0-.457.322,5.488,5.488,0,0,1,.459.788,7.852,7.852,0,0,1,.662,3.512.346.346,0,1,0,.687-.078c-.038-.927.034-4.069,2.571-5.56a7.423,7.423,0,0,1,3.871-.768A.347.347,0,0,0,4627.494,3443.348Z" fill="#888"/>
          </g>
        </g>
        <g id="Group_155" data-name="Group 155" transform="translate(-20)">
          <g id="Group_154" data-name="Group 154">
            <path id="Path_66" data-name="Path 66" d="M4588.39,3362.331c-.276-.057-2.452.328-3.424-1.632a4.607,4.607,0,0,1-.419-2.071.442.442,0,0,0-.364-.492.448.448,0,0,0-.517.341c-.029.127.182,2.328-1.415,3.349a4.259,4.259,0,0,1-2.4.5.45.45,0,0,0-.046.884,4.471,4.471,0,0,1,2.461.521,3.488,3.488,0,0,1,1.385,2.8,2.372,2.372,0,0,0,.02.573.449.449,0,0,0,.87-.054,4.984,4.984,0,0,1,.432-2.225.407.407,0,1,0-.728-.366c-.052.1-.1.208-.144.318a2,2,0,0,1,0-4,3.579,3.579,0,0,0,1.9,2c-.089.039-.178.082-.266.13a.407.407,0,1,0,.387.717,4.536,4.536,0,0,1,2.231-.4A.45.45,0,0,0,4588.39,3362.331Z" fill="#888"/>
          </g>
        </g>
        <g id="Group_157" data-name="Group 157">
          <g id="Group_156" data-name="Group 156">
            <path id="Path_67" data-name="Path 67" d="M4536.4,3356.932c-.276-.057-2.452.328-3.424-1.633a4.6,4.6,0,0,1-.419-2.071.447.447,0,0,0-.881-.15c-.029.127.181,2.328-1.416,3.349a4.259,4.259,0,0,1-2.4.5.45.45,0,0,0-.045.884,4.465,4.465,0,0,1,2.461.52,3.5,3.5,0,0,1,1.385,2.8,2.374,2.374,0,0,0,.019.573.449.449,0,0,0,.87-.054,4.991,4.991,0,0,1,.433-2.225.407.407,0,0,0-.728-.366q-.078.153-.144.318a2,2,0,0,1,0-4,3.577,3.577,0,0,0,1.9,2c-.088.04-.177.083-.266.131a.408.408,0,0,0,.388.717,4.521,4.521,0,0,1,2.23-.4A.45.45,0,0,0,4536.4,3356.932Z" fill="#888"/>
          </g>
        </g>
        <g id="Group_159" data-name="Group 159" transform="translate(20)">
          <g id="Group_158" data-name="Group 158">
            <path id="Path_68" data-name="Path 68" d="M4448.918,3447.208a2.47,2.47,0,0,1-2.477-1.182,3.325,3.325,0,0,1-.3-1.5.32.32,0,0,0-.263-.356.325.325,0,0,0-.374.247,2.831,2.831,0,0,1-1.024,2.423,3.094,3.094,0,0,1-1.733.362.325.325,0,0,0-.033.639,3.231,3.231,0,0,1,1.781.376,2.529,2.529,0,0,1,1,2.024,1.7,1.7,0,0,0,.015.415.325.325,0,0,0,.629-.039,3.607,3.607,0,0,1,.313-1.61.3.3,0,0,0-.527-.265q-.056.111-.1.23a1.45,1.45,0,0,1,0-2.9,2.586,2.586,0,0,0,1.371,1.448c-.064.028-.129.06-.193.094a.295.295,0,1,0,.281.519,3.3,3.3,0,0,1,1.614-.292A.325.325,0,0,0,4448.918,3447.208Z" fill="#888"/>
          </g>
        </g>
        <g id="Group_166" data-name="Group 166" transform="translate(-20)" opacity="0.8">
          <g id="Group_161" data-name="Group 161">
            <g id="Group_160" data-name="Group 160">
              <path id="Path_69" data-name="Path 69" d="M4607.384,3406.314a3.077,3.077,0,0,1-1.463-.26.264.264,0,0,0-.251.465c.055.03.11.057.165.081a2.307,2.307,0,0,0-1.229,1.3,1.3,1.3,0,0,1,0-2.593c.05.124.1.211.1.215a.264.264,0,1,0,.471-.241,2.823,2.823,0,0,1-.283-1.364.286.286,0,0,0-.236-.319.291.291,0,0,0-.335.221,2.537,2.537,0,0,1-.918,2.172,2.911,2.911,0,0,1-1.583.328.292.292,0,0,0,0,.568,2.907,2.907,0,0,1,1.6.338,2.467,2.467,0,0,1,.9,2.1.291.291,0,0,0,.569.081,2.634,2.634,0,0,1,.877-2.163,2.755,2.755,0,0,1,1.6-.355A.291.291,0,0,0,4607.384,3406.314Z" fill="#888"/>
            </g>
          </g>
          <g id="Group_163" data-name="Group 163">
            <g id="Group_162" data-name="Group 162">
              <path id="Path_70" data-name="Path 70" d="M4616.3,3401.158c-.483-.053-3.927.43-5.432-2.73a7.489,7.489,0,0,1-.632-3.358.326.326,0,0,0-.353-.253.323.323,0,0,0-.291.311v.686c-.12,2.358-1.193,4.365-3.446,5.071a8.665,8.665,0,0,1-2.641.278.327.327,0,0,0,0,.639,6.346,6.346,0,0,1,4.235,1.133.264.264,0,1,0,.338-.406,2.9,2.9,0,1,1,1.836-5.241,4.2,4.2,0,0,1,0,8.378,6.231,6.231,0,0,0-.949-2.179.264.264,0,0,0-.432.3,5.127,5.127,0,0,1,.434.744,7.393,7.393,0,0,1,.625,3.318.327.327,0,1,0,.65-.073c-.037-.876.031-3.845,2.429-5.254a7.026,7.026,0,0,1,3.659-.726A.327.327,0,0,0,4616.3,3401.158Z" fill="#888"/>
            </g>
          </g>
          <g id="Group_165" data-name="Group 165">
            <g id="Group_164" data-name="Group 164">
              <path id="Path_71" data-name="Path 71" d="M4604.331,3396.811a2.215,2.215,0,0,1-2.22-1.059,2.981,2.981,0,0,1-.272-1.343.29.29,0,0,0-.571-.1,2.538,2.538,0,0,1-.918,2.171,2.767,2.767,0,0,1-1.553.324.291.291,0,0,0-.03.573,2.9,2.9,0,0,1,1.6.337,2.267,2.267,0,0,1,.9,1.814,1.473,1.473,0,0,0,.013.372.291.291,0,0,0,.564-.035,3.243,3.243,0,0,1,.28-1.443.264.264,0,1,0-.472-.237c-.033.066-.064.135-.093.206a1.3,1.3,0,0,1,0-2.595,2.317,2.317,0,0,0,1.229,1.3c-.058.025-.116.053-.173.084a.264.264,0,1,0,.252.465,2.946,2.946,0,0,1,1.446-.261A.291.291,0,0,0,4604.331,3396.811Z" fill="#888"/>
            </g>
          </g>
        </g>
        <g id="Group_169" data-name="Group 169" transform="translate(-20)" opacity="0.1">
          <g id="Group_168" data-name="Group 168">
            <g id="Group_167" data-name="Group 167">
              <path id="Path_72" data-name="Path 72" d="M4587.739,3349.5a.677.677,0,0,0,.548.461l2.923.425,1.306,2.647a.677.677,0,0,0,1.216,0l1.307-2.647,2.922-.425a.678.678,0,0,0,.376-1.156l-2.115-2.061.5-2.911a.68.68,0,0,0-.27-.663.682.682,0,0,0-.713-.052l-2.614,1.375-2.613-1.374a.671.671,0,0,0-.316-.079.678.678,0,0,0-.668.793l.5,2.911-2.115,2.061A.681.681,0,0,0,4587.739,3349.5Z" fill="#888"/>
            </g>
          </g>
        </g>
        <g id="Group_172" data-name="Group 172" transform="translate(20)" opacity="0.1">
          <g id="Group_171" data-name="Group 171">
            <g id="Group_170" data-name="Group 170">
              <path id="Path_73" data-name="Path 73" d="M4404.318,3447.532a.677.677,0,0,0,.547.461l2.923.425,1.307,2.647a.677.677,0,0,0,1.216,0l1.306-2.647,2.923-.425a.677.677,0,0,0,.375-1.156l-2.114-2.061.5-2.911a.678.678,0,0,0-.984-.715l-2.613,1.375-2.614-1.374a.662.662,0,0,0-.315-.079.679.679,0,0,0-.669.793l.5,2.911-2.114,2.061A.676.676,0,0,0,4404.318,3447.532Z" fill="#888"/>
            </g>
          </g>
        </g>
        <g id="Group_175" data-name="Group 175" transform="translate(20)" opacity="0.1">
          <g id="Group_174" data-name="Group 174">
            <g id="Group_173" data-name="Group 173">
              <path id="Path_74" data-name="Path 74" d="M4455.338,3373.709a.6.6,0,0,0,.481.405l2.566.373,1.147,2.324a.595.595,0,0,0,1.067,0l1.148-2.324,2.565-.373a.6.6,0,0,0,.33-1.015l-1.857-1.81.438-2.555a.594.594,0,0,0-.237-.582.583.583,0,0,0-.349-.114.6.6,0,0,0-.277.068l-2.294,1.207-2.295-1.206a.6.6,0,0,0-.864.627l.438,2.555-1.856,1.81A.6.6,0,0,0,4455.338,3373.709Z" fill="#888"/>
            </g>
          </g>
        </g>
      </g>
      <g id="Group_2822" data-name="Group 2822" transform="translate(4499.34 3383.555)">
        <path id="Path_3464" data-name="Path 3464" d="M155.158,91.482a2.762,2.762,0,0,0-4.142,2.392v9.235a2.756,2.756,0,0,0,4.142,2.391l8-4.618a2.761,2.761,0,0,0,0-4.783Zm6.672,7.1-8,4.618a.11.11,0,0,1-.164-.095V93.874a.1.1,0,0,1,.055-.095.108.108,0,0,1,.056-.017.1.1,0,0,1,.053.017l8,4.618a.11.11,0,0,1,0,.19Zm0,0" transform="translate(-130.992 -79.027)" fill="#888"/>
        <path id="Path_3465" data-name="Path 3465" d="M385.326,132a1.326,1.326,0,1,0,.938.388A1.337,1.337,0,0,0,385.326,132Zm0,0" transform="translate(-333.083 -114.497)" fill="#888"/>
        <path id="Path_3466" data-name="Path 3466" d="M281.105,264.077a5.039,5.039,0,1,0-5.039-5.039A5.044,5.044,0,0,0,281.105,264.077Zm0-7.425a2.387,2.387,0,1,1-2.387,2.387A2.39,2.39,0,0,1,281.105,256.652Zm0,0" transform="translate(-239.461 -220.321)" fill="#888"/>
        <path id="Path_3467" data-name="Path 3467" d="M286.144,399.039a5.039,5.039,0,1,0-5.039,5.039A5.044,5.044,0,0,0,286.144,399.039Zm-7.425,0a2.387,2.387,0,1,1,2.387,2.387A2.389,2.389,0,0,1,278.718,399.039Zm0,0" transform="translate(-239.461 -341.757)" fill="#888"/>
        <path id="Path_3468" data-name="Path 3468" d="M351.105,334.077a5.039,5.039,0,1,0-5.039-5.039A5.044,5.044,0,0,0,351.105,334.077Zm0-7.425a2.387,2.387,0,1,1-2.387,2.387A2.39,2.39,0,0,1,351.105,326.652Zm0,0" transform="translate(-300.179 -281.039)" fill="#888"/>
        <path id="Path_3469" data-name="Path 3469" d="M211.105,324a5.039,5.039,0,1,0,5.039,5.039A5.044,5.044,0,0,0,211.105,324Zm0,7.425a2.387,2.387,0,1,1,2.387-2.387A2.389,2.389,0,0,1,211.105,331.425Zm0,0" transform="translate(-178.743 -281.039)" fill="#888"/>
        <path id="Path_3470" data-name="Path 3470" d="M304.447,352.388a1.327,1.327,0,1,0,.939-.388A1.337,1.337,0,0,0,304.447,352.388Zm0,0" transform="translate(-263.742 -305.326)" fill="#888"/>
        <path id="Path_3471" data-name="Path 3471" d="M457.668,420.994v3.27a1.326,1.326,0,1,0,2.652,0v-3.27a1.326,1.326,0,0,0-2.652,0Zm0,0" transform="translate(-396.983 -364.022)" fill="#888"/>
        <path id="Path_3472" data-name="Path 3472" d="M66.563,49.326H61.488c.029-.439.046-.881.046-1.326a19.872,19.872,0,0,0-7.965-15.908V24.132a1.326,1.326,0,1,0-2.652,0v6.277A19.855,19.855,0,0,0,32.8,30.188H11.293V29.141a1.326,1.326,0,0,0-2.652,0v1.047H7.028a1.326,1.326,0,0,0,0,2.652H8.641v1.047a1.326,1.326,0,1,0,2.652,0V32.84H28.785A20.063,20.063,0,0,0,25,37.127H4.508a1.859,1.859,0,0,1-1.856-1.856V7.956H11.16a1.326,1.326,0,1,0,0-2.652H2.652v-.8A1.859,1.859,0,0,1,4.508,2.652H49.061a1.859,1.859,0,0,1,1.856,1.856v8.9a1.326,1.326,0,1,0,2.652,0v-8.9A4.514,4.514,0,0,0,49.061,0H4.508A4.514,4.514,0,0,0,0,4.508V35.271a4.514,4.514,0,0,0,4.508,4.508H23.534a19.887,19.887,0,0,0,18.11,28.11H66.563a1.326,1.326,0,0,0,1.326-1.326V50.652A1.326,1.326,0,0,0,66.563,49.326ZM24.406,48A17.237,17.237,0,1,1,41.644,65.237,17.257,17.257,0,0,1,24.406,48ZM65.237,65.237H51.558a19.954,19.954,0,0,0,9.575-13.26h4.1Zm0,0" fill="#888"/>
        <path id="Path_3473" data-name="Path 3473" d="M114.06,40.388A1.325,1.325,0,1,0,115,40,1.33,1.33,0,0,0,114.06,40.388Zm0,0" transform="translate(-98.599 -34.696)" fill="#888"/>
      </g>
    </g>
  </g>
</svg>
