<svg xmlns="http://www.w3.org/2000/svg" width="9.796" height="6.93" viewBox="0 0 9.796 6.93">
  <path id="ic_check-white" d="M5545.978,781.9l-4.442,4.437-2.223-2.256a.9.9,0,1,0-1.287,1.265h0l2.857,2.91h0a.893.893,0,0,0,.082.068c.021.015.037.033.056.045a.84.84,0,0,0,.1.053c.019.01.04.022.059.031a.9.9,0,0,0,.115.035.349.349,0,0,1,.053.015.9.9,0,0,0,.344,0,.238.238,0,0,0,.053-.015.93.93,0,0,0,.114-.033c.021-.009.04-.021.062-.031a.907.907,0,0,0,.095-.05c.02-.014.037-.03.057-.045a.9.9,0,0,0,.083-.066h0l5.1-5.091a.9.9,0,0,0-1.187-1.359A1,1,0,0,0,5545.978,781.9Z" transform="translate(-5537.766 -781.588)" fill="#fff"/>
</svg>
