<svg xmlns="http://www.w3.org/2000/svg" viewBox="342.5 -1655.4 15 15">
  <defs>
    <style>
      .cls-1 {
        fill: #fff;
      }
    </style>
  </defs>
  <g id="ic_call" transform="translate(0 -1691)">
    <path id="Path_111" data-name="Path 111" class="cls-1" d="M353.1,45.3l-1.2,1.2a1.872,1.872,0,0,1-2.6,0l-2.8-2.8a1.872,1.872,0,0,1,0-2.6l1.2-1.2a9.737,9.737,0,0,1-.6-3.4v-.9h-4.5c0,.4-.1.9-.1,1.4a13.614,13.614,0,0,0,13.6,13.6,6.15,6.15,0,0,0,1.4-.1V45.9c-.4,0-.7.1-1.1.1A11.377,11.377,0,0,1,353.1,45.3Z"/>
  </g>
</svg>
