<svg xmlns="http://www.w3.org/2000/svg" viewBox="31 -1382.6 18 18">
  <defs>
    <style>
      .cls-1 {
        fill: #ffffff;
      }
    </style>
  </defs>
  <path id="ic_calendar" class="cls-1" d="M36.3,286.6H35.2v-.8a1.4,1.4,0,0,0-2.8,0v.8H25.6v-.8a1.4,1.4,0,0,0-2.8,0v.8H21.7a1.752,1.752,0,0,0-1.7,1.7v12.4a1.752,1.752,0,0,0,1.7,1.7H36.3a1.752,1.752,0,0,0,1.7-1.7V288.3A1.685,1.685,0,0,0,36.3,286.6Zm-.6,13.5H22.2v-9.6H35.7Zm-11.8-6.2v-1.1a.645.645,0,0,1,.6-.6h1.1a.645.645,0,0,1,.6.6v1.1a.645.645,0,0,1-.6.6H24.5A.645.645,0,0,1,23.9,293.9Zm4,0v-1.1a.645.645,0,0,1,.6-.6h1.1a.645.645,0,0,1,.6.6v1.1a.645.645,0,0,1-.6.6H28.5A.576.576,0,0,1,27.9,293.9Zm3.9,0v-1.1a.645.645,0,0,1,.6-.6h1.1a.645.645,0,0,1,.6.6v1.1a.645.645,0,0,1-.6.6H32.4A.645.645,0,0,1,31.8,293.9Zm-7.9,3.9v-1.1a.645.645,0,0,1,.6-.6h1.1a.645.645,0,0,1,.6.6v1.1a.645.645,0,0,1-.6.6H24.5A.645.645,0,0,1,23.9,297.8Zm4,0v-1.1a.645.645,0,0,1,.6-.6h1.1a.645.645,0,0,1,.6.6v1.1a.645.645,0,0,1-.6.6H28.5A.576.576,0,0,1,27.9,297.8Z" transform="translate(11 -1667)"/>
</svg>
