<svg xmlns="http://www.w3.org/2000/svg" width="15.743" height="13.896" viewBox="0 0 15.743 13.896">
  <g id="ic_filter" transform="translate(-756.906 -3219.22)" fill="none" stroke-linecap="round" stroke-linejoin="round">
    <path d="M771.048,3220.82H758.506l5.017,5.621v3.887l2.508,1.188v-5.075Z" stroke="none"/>
    <path d="M 758.5057373046875 3220.81982421875 L 763.52294921875 3226.4404296875 L 763.52294921875 3230.3271484375 L 766.0313720703125 3231.515625 L 766.0313720703125 3226.4404296875 L 771.0484619140625 3220.81982421875 L 758.5057373046875 3220.81982421875 M 758.5057373046875 3219.2197265625 L 771.0484619140625 3219.2197265625 C 771.6791381835938 3219.2197265625 772.2509765625 3219.59033203125 772.5087280273438 3220.166015625 C 772.7664794921875 3220.741455078125 772.6620483398438 3221.414794921875 772.2421264648438 3221.88525390625 L 767.63134765625 3227.05078125 L 767.63134765625 3231.515625 C 767.63134765625 3232.064208984375 767.3504028320313 3232.574462890625 766.8869018554688 3232.86767578125 C 766.6268310546875 3233.0322265625 766.32958984375 3233.11572265625 766.03125 3233.11572265625 C 765.7979125976563 3233.11572265625 765.5638427734375 3233.064697265625 765.3463134765625 3232.96142578125 L 762.837890625 3231.77294921875 C 762.2791748046875 3231.50830078125 761.9229736328125 3230.9453125 761.9229736328125 3230.3271484375 L 761.9229736328125 3227.05078125 L 757.3121337890625 3221.88525390625 C 756.8921508789063 3221.414794921875 756.7877197265625 3220.741455078125 757.0454711914063 3220.166015625 C 757.30322265625 3219.59033203125 757.8750610351563 3219.2197265625 758.5057373046875 3219.2197265625 Z" stroke="none" fill="#fff"/>
  </g>
</svg>
