<svg xmlns="http://www.w3.org/2000/svg" width="17.165" height="6.938" viewBox="0 0 17.165 6.938">
  <path id="ic_imdb" d="M2023,444.059v6.848h-1.776v-6.848Zm3.791,0-.411,3.2-.253-1.74c-.076-.558-.146-1.046-.215-1.461h-2.3v6.848h1.557l.007-4.521.653,4.521h1.109l.624-4.62,0,4.62h1.553v-6.848Zm2.931,6.848v-6.848h1.325a7.241,7.241,0,0,1,1.66.12,1.338,1.338,0,0,1,.69.388,1.229,1.229,0,0,1,.3.6,9.427,9.427,0,0,1,.063,1.3v2.4a5.294,5.294,0,0,1-.093,1.231.92.92,0,0,1-.3.485,1.228,1.228,0,0,1-.531.246,4.837,4.837,0,0,1-.956.069Zm1.776-5.675v4.494c.256,0,.412-.049.471-.152a2.236,2.236,0,0,0,.089-.841v-2.652a3.573,3.573,0,0,0-.029-.594.282.282,0,0,0-.136-.193A.838.838,0,0,0,2031.5,445.232Zm4.577-1.173v2.228a1.435,1.435,0,0,1,.475-.365,1.655,1.655,0,0,1,.64-.123,1.587,1.587,0,0,1,.615.109.894.894,0,0,1,.4.309.933.933,0,0,1,.163.389,7.037,7.037,0,0,1,.026.81v1.921a3.672,3.672,0,0,1-.083.916.94.94,0,0,1-.389.521,1.2,1.2,0,0,1-.727.223,1.59,1.59,0,0,1-.637-.13,1.478,1.478,0,0,1-.478-.4l-.113.435h-1.6v-6.848Zm.6,3.433a1.815,1.815,0,0,0-.057-.568c-.037-.087-.183-.133-.292-.133a.2.2,0,0,0-.205.116,2.177,2.177,0,0,0-.047.585V449.3a1.971,1.971,0,0,0,.053.578.206.206,0,0,0,.213.126c.109,0,.252-.043.285-.129a2.339,2.339,0,0,0,.05-.628Z" transform="translate(-2021.224 -444.059)" fill="#fff" fill-rule="evenodd"/>
</svg>
