<svg xmlns="http://www.w3.org/2000/svg" width="17.6" height="17.6" viewBox="0 0 17.6 17.6">
  <g id="ic_info" transform="translate(-17 -403)">
    <g id="ic_info-2" data-name="ic_info" transform="translate(-6.7 -302)">
      <circle id="Ellipse_1" data-name="Ellipse 1" cx="8.8" cy="8.8" r="8.8" transform="translate(23.7 705)" fill="#ffb100"/>
      <path id="Path_21" data-name="Path 21" d="M34.1,620.4l-.6,1.7a13.081,13.081,0,0,0-.4,1.4c0,.2.1.3.2.3.2,0,.5-.3.9-.8a1.727,1.727,0,0,0,.3-.4.31.31,0,0,1,.2.1c.1.1.2.1.2.2a2.408,2.408,0,0,1-.7,1,2.576,2.576,0,0,1-1.9,1,1.159,1.159,0,0,1-1-.4,1.445,1.445,0,0,1-.2-.7,4.515,4.515,0,0,1,.3-1.3l.4-1.2a15.571,15.571,0,0,0,.6-1.8.215.215,0,0,0-.2-.2c-.2,0-.5.2-.9.7q-.15.3-.3.3c-.1,0-.1,0-.2-.1s-.2-.1-.2-.2c0-.2.2-.5.7-1a2.593,2.593,0,0,1,1.8-.9,1.4,1.4,0,0,1,.9.3,1.136,1.136,0,0,1,.3.8,5.987,5.987,0,0,1-.2,1.2Zm1.2-4.2a.864.864,0,0,1-.3.6.908.908,0,0,1-.7.3.713.713,0,0,1-.6-.3.864.864,0,0,1-.3-.6.99.99,0,0,1,1.7-.7,2.543,2.543,0,0,1,.2.7Z" transform="translate(0 93)" fill="#fff"/>
    </g>
  </g>
</svg>
