<svg xmlns="http://www.w3.org/2000/svg" width="23.501" height="18.237" viewBox="0 0 23.501 18.237">
  <g id="ic_movies_active" transform="translate(0.25 0.25)">
    <g id="Group_26" data-name="Group 26">
      <g id="Group_25" data-name="Group 25">
        <path id="Path_10" data-name="Path 10" d="M374.578,1309.643h-21.3a.83.83,0,0,0-.852.806v16.125a.83.83,0,0,0,.852.806h21.3a.83.83,0,0,0,.852-.806v-16.125A.829.829,0,0,0,374.578,1309.643Zm-17.89,16.125h-2.556v-2.419h2.556Zm0-4.031h-2.556v-2.419h2.556Zm0-4.031h-2.556v-2.419h2.556Zm0-4.032h-2.556v-2.418h2.556Zm12.779,12.094H358.393v-14.513h11.074v14.513Zm4.259,0h-2.556v-2.419h2.556Zm0-4.031h-2.556v-2.419h2.556Zm0-4.031h-2.556v-2.419h2.556Zm0-4.032h-2.556v-2.418h2.556Zm-11.713,8.682,5.75-3.142a.785.785,0,0,0,0-1.4l-5.75-3.142a.853.853,0,0,0-1.278.7v6.284A.853.853,0,0,0,362.013,1322.356Zm.426-5.586,3.194,1.746-3.194,1.745Z" transform="translate(-352.429 -1309.643)" fill="#ffb100" stroke="#fff" stroke-miterlimit="10" stroke-width="0.5"/>
      </g>
    </g>
  </g>
</svg>
