<svg xmlns="http://www.w3.org/2000/svg" width="15" height="14.734" viewBox="0 0 15 14.734">
  <g id="ic_sort_horizontal" transform="translate(-344.219 -35.511)">
    <path id="Path_365" data-name="Path 365" d="M2421.711,2060.775h-9.681a.969.969,0,0,0-.666.26.9.9,0,0,0-.284.658.927.927,0,0,0,.943.914h9.7a.925.925,0,0,0,.913-.934.9.9,0,0,0-.283-.64A.934.934,0,0,0,2421.711,2060.775Z" transform="translate(-2065.141 -2012.363)" fill="#fff"/>
    <path id="Path_366" data-name="Path 366" d="M2421.69,2054.063h-10.958a.99.99,0,0,0-.652.259.9.9,0,0,0-.02,1.294.945.945,0,0,0,.677.279h10.944a.916.916,0,1,0,.008-1.832Z" transform="translate(-2064.488 -2009.011)" fill="#fff"/>
    <path id="Path_367" data-name="Path 367" d="M2421.647,2035.005h-13.14a.925.925,0,0,0-.93.917v5.579a.925.925,0,0,0,.93.917h13.14a.925.925,0,0,0,.93-.917v-5.579A.925.925,0,0,0,2421.647,2035.005Zm-.93,1.834v3.745h-11.279v-3.745Z" transform="translate(-2063.358 -1999.494)" fill="#fff"/>
  </g>
</svg>
