<svg xmlns="http://www.w3.org/2000/svg" width="14.734" height="15" viewBox="0 0 14.734 15">
  <g id="ic_sort_vertical" transform="translate(-344.352 -35.378)">
    <g id="Group_439" data-name="Group 439" transform="translate(-1690.653 2457.955) rotate(-90)">
      <path id="Path_365" data-name="Path 365" d="M2421.711,2060.775h-9.681a.969.969,0,0,0-.666.26.9.9,0,0,0-.284.658.927.927,0,0,0,.943.914h9.7a.925.925,0,0,0,.913-.934.9.9,0,0,0-.283-.64A.934.934,0,0,0,2421.711,2060.775Z" transform="translate(-1.783 -12.869)" fill="#fff"/>
      <path id="Path_366" data-name="Path 366" d="M2421.69,2054.063h-10.958a.99.99,0,0,0-.652.259.9.9,0,0,0-.02,1.294.945.945,0,0,0,.677.279h10.944a.916.916,0,1,0,.008-1.832Z" transform="translate(-1.13 -9.517)" fill="#fff"/>
      <path id="Path_367" data-name="Path 367" d="M2421.647,2035.005h-13.14a.925.925,0,0,0-.93.917v5.579a.925.925,0,0,0,.93.917h13.14a.925.925,0,0,0,.93-.917v-5.579A.925.925,0,0,0,2421.647,2035.005Zm-.93,1.834v3.745h-11.279v-3.745Z" transform="translate(0 0)" fill="#fff"/>
    </g>
  </g>
</svg>
