<svg xmlns="http://www.w3.org/2000/svg" width="21.264" height="19.219" viewBox="0 0 21.264 19.219">
  <g id="ic_theater" transform="translate(0.5 0.5)">
    <g id="Group_28" data-name="Group 28">
      <path id="Path_11" data-name="Path 11" d="M94.455,1323.957H79.127a1.07,1.07,0,0,1-1.03-1.1v-8.946a1.07,1.07,0,0,1,1.03-1.1h.667a4.39,4.39,0,1,1,7.027-5.265,4.39,4.39,0,1,1,7.026,5.265h.608a1.07,1.07,0,0,1,1.03,1.1v1.168l1.292-.882a.978.978,0,0,1,1.109,0h0a1.12,1.12,0,0,1,.475.931v6.314a1.12,1.12,0,0,1-.475.931.978.978,0,0,1-1.109,0l-1.292-.882v1.363A1.07,1.07,0,0,1,94.455,1323.957Zm-15.118-1.241H94.244v-3.576l2.876,1.963v-5.643l-2.876,1.963v-3.381h-4.4l2.061-1.161a3.152,3.152,0,1,0-4.5-3.835l-.582,1.578-.582-1.578a3.152,3.152,0,1,0-4.5,3.835l2.06,1.161H79.338Z" transform="translate(-78.097 -1305.739)" fill="#888" stroke="rgba(0,0,0,0)" stroke-width="1"/>
    </g>
  </g>
</svg>
